<?xml version="1.0" standalone="no"?><!DOCTYPE svg PUBLIC "-//W3C//DTD SVG 1.1//EN" "http://www.w3.org/Graphics/SVG/1.1/DTD/svg11.dtd"><svg t="1700184229334" class="icon" viewBox="0 0 1024 1024" version="1.1" xmlns="http://www.w3.org/2000/svg" p-id="1545" xmlns:xlink="http://www.w3.org/1999/xlink" width="200" height="200"><path d="M744.625611 709.382071a379.688308 379.688308 0 0 1-29.276085 146.830828 375.859897 375.859897 0 0 1-73.190214 112.600329l-76.568223 39.410115a130.841582 130.841582 0 0 1-60.804178 14.638042 133.54399 133.54399 0 0 1-62.605782-15.538845L86.814491 817.703587A132.643187 132.643187 0 0 1 16.326686 700.374044v-157.64046a384.417522 384.417522 0 0 1 345.457808-217.769036 382.841117 382.841117 0 0 1 382.841117 384.417523z" fill="#FFD000" p-id="1546"></path><path d="M504.786911 1023.987389a135.120394 135.120394 0 0 1-62.605782-15.538846L86.814491 818.82959a132.417986 132.417986 0 0 1-70.262605-117.329542V322.487341a132.643187 132.643187 0 0 1 70.262605-117.329542L442.181129 15.538845a133.318789 133.318789 0 0 1 123.635161 0l369.779479 190.519756a132.192786 132.192786 0 0 1 72.06421 118.230346v376.9859a132.417986 132.417986 0 0 1-72.06421 118.230345L565.81629 1010.024948a132.417986 132.417986 0 0 1-61.029379 13.962441z m0-956.427192a63.731786 63.731786 0 0 0-30.627289 7.656823L118.567784 264.835973a65.533391 65.533391 0 0 0-34.4557 57.651368v379.688308a65.08299 65.08299 0 0 0 34.4557 57.651369l355.591838 190.069355a64.857789 64.857789 0 0 0 60.578977 0l370.455081-191.195359a65.08299 65.08299 0 0 0 35.356503-58.101769V323.613345a64.632589 64.632589 0 0 0-35.356503-58.10177L535.189 74.766618A65.983793 65.983793 0 0 0 504.786911 67.560197z" fill="#000000" p-id="1547"></path><path d="M506.588517 551.066008a34.455701 34.455701 0 0 1-24.096471-9.908828l-170.251697-170.476898a33.554898 33.554898 0 0 1 0-47.742539 34.005299 34.005299 0 0 1 47.74254 0l170.476897 170.476897a34.005299 34.005299 0 0 1 0 47.74254 34.455701 34.455701 0 0 1-23.871269 9.908828z" fill="#000000" p-id="1548"></path><path d="M529.784184 551.066008a33.780099 33.780099 0 0 1-23.871269-57.651368l170.251697-170.476897a34.005299 34.005299 0 0 1 47.742539 0 33.554898 33.554898 0 0 1 0 47.742539l-170.251697 170.476898a34.005299 34.005299 0 0 1-23.87127 9.908828z" fill="#000000" p-id="1549"></path><path d="M518.07375 804.191547a33.780099 33.780099 0 0 1-33.780098-33.780098v-240.964704a33.780099 33.780099 0 1 1 67.560197 0v240.289102a33.780099 33.780099 0 0 1-33.780099 34.4557z" fill="#000000" p-id="1550"></path></svg>